<svg width="16" height="16" viewBox="0 0 16 16" fill="none" xmlns="http://www.w3.org/2000/svg">
<g clip-path="url(#clip0_41474_6381)">
<path fill-rule="evenodd" clip-rule="evenodd" d="M16 0.499698C16 0.425752 15.9835 0.352737 15.9518 0.285913C15.9202 0.219089 15.8741 0.160119 15.8169 0.113252C15.7597 0.0663852 15.6928 0.0327882 15.6211 0.0148817C15.5493 -0.00302489 15.4745 -0.00479528 15.402 0.00969808L10.5 0.989698L5.598 0.00969808C5.53331 -0.00323266 5.46669 -0.00323266 5.402 0.00969808L0.402 1.0097C0.288695 1.03235 0.186731 1.09354 0.113443 1.18287C0.0401561 1.2722 6.9782e-05 1.38415 0 1.4997L0 15.4997C4.46527e-05 15.5736 0.0164902 15.6467 0.0481518 15.7135C0.0798134 15.7803 0.125903 15.8393 0.183099 15.8861C0.240296 15.933 0.307176 15.9666 0.378921 15.9845C0.450665 16.0024 0.525489 16.0042 0.598 15.9897L5.5 15.0097L10.402 15.9897C10.4667 16.0026 10.5333 16.0026 10.598 15.9897L15.598 14.9897C15.7113 14.9671 15.8133 14.9059 15.8866 14.8165C15.9598 14.7272 15.9999 14.6152 16 14.4997V0.499698ZM5 14.0897V1.1097L5.5 1.0097L6 1.1097V14.0897L5.598 14.0097C5.53331 13.9967 5.46669 13.9967 5.402 14.0097L5 14.0897ZM10 14.8897V1.9097L10.402 1.9897C10.4667 2.00263 10.5333 2.00263 10.598 1.9897L11 1.9097V14.8897L10.5 14.9897L10 14.8897Z" fill="white"/>
</g>
<defs>
<clipPath id="clip0_41474_6381">
<rect width="16" height="16" fill="white"/>
</clipPath>
</defs>
</svg>
