<svg width="24" height="24" viewBox="0 0 24 24" fill="none" xmlns="http://www.w3.org/2000/svg">
<rect width="24" height="24" rx="12" fill="#CB202D"/>
<path d="M18 18L15.1047 15.1047M15.1047 15.1047C15.6 14.6094 15.9928 14.0215 16.2608 13.3744C16.5289 12.7273 16.6668 12.0338 16.6668 11.3334C16.6668 10.633 16.5289 9.93948 16.2608 9.2924C15.9928 8.64532 15.6 8.05737 15.1047 7.56212C14.6094 7.06687 14.0215 6.67401 13.3744 6.40598C12.7273 6.13795 12.0338 6 11.3334 6C10.633 6 9.93948 6.13795 9.2924 6.40598C8.64532 6.67401 8.05737 7.06687 7.56212 7.56212C6.56191 8.56233 6 9.9189 6 11.3334C6 12.7479 6.56191 14.1045 7.56212 15.1047C8.56233 16.1049 9.9189 16.6668 11.3334 16.6668C12.7479 16.6668 14.1045 16.1049 15.1047 15.1047Z" stroke="white" stroke-width="2" stroke-linecap="round" stroke-linejoin="round"/>
</svg>
